<svg version="1.2" xmlns="http://www.w3.org/2000/svg" viewBox="0 0 230 178" width="230" height="178">
	<title>bt-svg</title>
	<style>
		.s0 { fill: #3e4e64 } 
		.s1 { fill: #1d4ed8 } 
		.s2 { fill: #009cdb } 
	</style>
	<g id="Layer">
		<g id="Layer">
			<path id="Layer" fill-rule="evenodd" class="s0" d="m270.9 103.6v-81.9h27.9c8.3 0 14.5 1.6 18.8 4.6q6.5 4.8 6.5 13.6c0 9.9-6.6 16.8-19.7 21 15.3 3.6 23 11.2 23 22.4 0 6.6-2.3 11.6-6.7 15.1-4.5 3.5-11 5.2-19.4 5.2zm16.1-47.8h4.1c4.8 0 8.6-1.1 11.3-3.5 2.9-2.4 4.3-5.6 4.3-9.7 0-3.7-1.1-6.3-3.4-7.7q-3.4-2-12.9-2h-3.4zm0 36.2h3.6c7.2 0 12.2-0.7 14.9-2.3 2.7-1.5 4.1-4.3 4.1-8.4 0-4.2-1.8-7.6-5.5-10.4-3.6-2.7-8.2-4.1-13.8-4.1h-3.3z"/>
		</g>
		<g id="Layer">
			<path id="Layer" class="s0" d="m334 103.6v-60.7h16.4v60.7zm0-70.9v-13.7h16.4v13.7z"/>
		</g>
		<g id="Layer">
			<path id="Layer" class="s0" d="m362.4 16.2h16.5v87.4h-16.5z"/>
		</g>
		<g id="Layer">
			<path id="Layer" class="s1" d="m411.3 103.6v-70.7h-29.3v-11.2h75.7v11.2h-29.4v70.7z"/>
		</g>
		<g id="Layer">
			<path id="Layer" class="s1" d="m460.8 103.6v-60.7h16.4v11.4c4.2-8.6 10.6-12.8 19.4-12.8q1.5 0 3 0.4v14.5c-2.3-0.8-4.5-1.3-6.5-1.3-6.5 0-11.8 3.3-15.9 10v38.5z"/>
		</g>
		<g id="Layer">
			<path id="Layer" fill-rule="evenodd" class="s1" d="m533.7 97.1c-5.4 5.3-11.3 7.9-17.6 7.9-5.3 0-9.6-1.6-12.9-4.9-3.3-3.1-5-7.5-5-12.6 0-6.6 2.8-11.9 8.1-15.5 5.3-3.6 13-5.4 23-5.4h4.4v-5.6c0-6.3-3.6-9.4-10.8-9.4-6.4 0-12.8 1.7-19.3 5.3v-11.2c7.3-2.8 14.7-4.2 22-4.2 15.9 0 23.9 6.3 23.9 18.9v26.9c0 4.8 1.4 7.2 4.5 7.2 0.6 0 1.3 0 2.2-0.3l0.4 9.3c-3.5 1-6.6 1.5-9.2 1.5-6.8 0-11.1-2.6-13-7.9zm0-8.8v-12.3h-3.9c-10.6 0-15.8 3.3-15.8 10 0 2.2 0.7 4 2.2 5.6 1.5 1.5 3.4 2.3 5.7 2.3 3.9 0 7.8-1.8 11.8-5.6z"/>
		</g>
		<g id="Layer">
			<path id="Layer" fill-rule="evenodd" class="s1" d="m600.5 103.6v-11.4c-4.2 8.5-10.9 12.8-20 12.8-7.2 0-13-2.6-17.1-8-4.2-5.4-6.3-12.7-6.3-22 0-10.2 2.3-18.4 7.1-24.4 4.6-6.1 11-9.1 18.9-9.1q9.6 0 17.4 7.5v-32.8h16.4v87.4zm0-44.9c-4-4.4-8.1-6.6-12.7-6.6-4.1 0-7.2 1.9-9.6 5.9-2.4 3.8-3.6 9-3.6 15.5 0 12.5 3.9 18.7 12 18.7 4.8 0 9.5-3.2 13.9-9.4z"/>
		</g>
		<g id="Layer">
			<path id="Layer" fill-rule="evenodd" class="s1" d="m678.4 101.6q-11.7 3.4-22.1 3.4c-10.2 0-18.2-2.8-24-8.6-5.9-5.8-8.9-13.6-8.9-23.6 0-9.4 2.8-17 8.1-22.7 5.3-5.8 12.5-8.6 21.3-8.6 8.9 0 15.4 2.7 19.5 8.4 4.1 5.6 6.1 14.5 6.1 26.6h-37.7c1.1 11.6 7.5 17.4 19.1 17.4 5.5 0 11.7-1.3 18.6-3.9zm-37.9-34.3h21.8c0-10.3-3.4-15.5-10.1-15.5-6.8 0-10.6 5.2-11.7 15.5z"/>
		</g>
		<g id="Layer">
			<path id="Layer" class="s1" d="m686.9 103.6v-60.7h16.5v11.4c4.2-8.6 10.6-12.8 19.4-12.8q1.5 0 3 0.4v14.5c-2.4-0.8-4.5-1.3-6.6-1.3-6.4 0-11.8 3.3-15.8 10v38.5z"/>
		</g>
		<g id="Layer">
			<path id="Layer" class="s0" d="m264.4 169.2v-29.1h18.2v4h-12.2v8.9h10.1v4h-10.1v12.2z"/>
		</g>
		<g id="Layer">
			<path id="Layer" class="s0" d="m294.4 140.1h6.1v29.1h-6.1z"/>
		</g>
		<g id="Layer">
			<path id="Layer" class="s0" d="m314.8 169.2v-29.1h5.3l13.5 19.9v-19.9h4.8v29.1h-5.4l-13.4-19.9v19.9z"/>
		</g>
		<g id="Layer">
			<path id="Layer" fill-rule="evenodd" class="s0" d="m352.6 169.2v-29.1h12.5q6.8 0.1 10.4 3.6 3.6 3.6 3.6 10.4 0 7.2-3.8 11.1-3.8 4-10.7 4zm6.1-4.1h4.5c3.2 0 5.5-0.9 7.1-2.7 1.6-1.7 2.3-4.4 2.3-8q0-4.1-1.8-6.9c-0.9-1.3-1.9-2.1-3.2-2.6-1.2-0.5-3-0.8-5.3-0.8h-3.6z"/>
		</g>
		<g id="Layer">
			<path id="Layer" class="s0" d="m434.9 168.5q-5.4 1.4-9.4 1.4c-5 0-8.8-1.3-11.5-3.9q-4-4-4.1-11.3c0-5 1.4-8.7 4.1-11.3q4-4 11.5-4c3.2 0 6.3 0.4 9.4 1.1v4.8q-5.4-1.9-8.9-1.9-4.6 0-7.1 3c-1.7 1.9-2.5 4.7-2.5 8.3q0 5.2 2.7 8.2c1.8 2 4.2 3 7.4 3q1 0 2.4-0.3v-9.6h6z"/>
		</g>
		<g id="Layer">
			<path id="Layer" fill-rule="evenodd" class="s0" d="m448.7 169.2v-29.1h10.9q8.9 0 8.8 7.3c0 1.7-0.4 3.4-1.4 4.8q-1.5 2.3-4.2 3.5l9.5 13.5h-7.4l-7.1-11.9h-3.4v11.9zm5.7-15.9h1.4q6.6 0 6.6-5.3c0-2.6-1.9-3.9-5.9-3.9h-2.1z"/>
		</g>
		<g id="Layer">
			<path id="Layer" class="s0" d="m483.4 169.2v-29.1h18.2v4h-12.1v8.1h9.9v3.9h-9.9v9h13v4.1z"/>
		</g>
		<g id="Layer">
			<path id="Layer" fill-rule="evenodd" class="s0" d="m511.4 169.2l11.3-29.1h6.1l11.3 29.1h-6.2l-3-7.8h-12.1l-3 7.8zm8.9-11.6h9.1l-4.6-11.6z"/>
		</g>
		<g id="Layer">
			<path id="Layer" class="s0" d="m558.4 169.2v-25.1h-10.4v-4h26.8v4h-10.4v25.1z"/>
		</g>
		<g id="Layer">
			<path id="Layer" fill-rule="evenodd" class="s0" d="m606.1 169.2v-29.1h12.5q6.8 0.1 10.4 3.6 3.6 3.6 3.6 10.4 0 7.2-3.8 11.1-3.8 4-10.7 4zm6.1-4.1h4.5c3.2 0 5.5-0.9 7.1-2.7 1.6-1.7 2.3-4.4 2.3-8q0-4.1-1.8-6.9c-0.9-1.3-2-2.1-3.2-2.6-1.2-0.5-3-0.8-5.3-0.8h-3.6z"/>
		</g>
		<g id="Layer">
			<path id="Layer" class="s0" d="m645 169.2v-29.1h18.2v4h-12.1v8.1h9.9v3.9h-9.9v9h13v4.1z"/>
		</g>
		<g id="Layer">
			<path id="Layer" fill-rule="evenodd" class="s0" d="m673 169.2l11.3-29.1h6l11.3 29.1h-6.2l-3-7.8h-12l-3 7.8zm8.9-11.6h9l-4.5-11.6z"/>
		</g>
		<g id="Layer">
			<path id="Layer" class="s0" d="m712.7 169.2v-29.1h6.1v25h13.1v4.1z"/>
		</g>
		<g id="Layer">
			<path id="Layer" class="s0" d="m741.5 169v-5c3.1 1.3 5.8 1.9 8 1.9 1.6 0 2.8-0.3 3.7-1 0.9-0.7 1.4-1.6 1.4-2.9q0-1.4-0.9-2.3-0.8-1-3.2-2.3l-1.9-1.1q-4-2.2-5.6-4.2c-1-1.3-1.6-2.9-1.6-4.7 0-2.4 0.9-4.3 2.7-5.8q2.6-2.2 7-2.2c2.2 0 4.9 0.4 7.8 1v4.7c-3-1.1-5.4-1.7-7.1-1.7q-2 0-3.2 0.9c-0.8 0.6-1.2 1.4-1.2 2.4q0 1.1 0.8 2c0.6 0.6 1.7 1.4 3.2 2.3l2.1 1.1q4.2 2.4 5.8 4.4 1.6 1.9 1.6 4.8 0 4-3 6.3c-2 1.6-4.8 2.3-8.3 2.3q-3.5 0-8.1-0.9z"/>
		</g>
	</g>
	<path id="Layer" fill-rule="evenodd" class="s1" d="m205.2 169.6c-4.6 5-11 7.8-18 7.8h-166.2c-6 0-11.5-2.4-15.5-6.7-4-4.3-5.9-10-5.4-16l7.6-97.1h26.8c2.5-12.2 10.2-23.5 26.3-23.5q5.1 0 9.4 1.6l0.5-5.5h33.3c2.5-15.4 11.8-30.2 31.8-30.2 20.1 0 29.4 14.8 31.9 30.2h34.3l9.5 120.9c0.6 7-1.7 13.5-6.3 18.5zm-184.2-9.3h41.1c-0.9-2.9-1.2-6-1-9.2l6.1-76.4h-43.7l-6.4 81.3c-0.1 1.6 0.5 2.5 1 3.1 0.5 0.5 1.4 1.2 2.9 1.2zm27.6-102.7h19.9l0.6-7c-2.1-1.9-4.8-2.8-8.3-2.8-7.3 0-10.7 4.8-12.2 9.8zm69.2-27.4h36.1c-1.7-7.9-6.2-16.5-18.1-16.5-11.8 0-16.3 8.6-18 16.5zm76.7 122.3l-8.3-105.2h-99.7l-8.3 105.2c-0.2 2.1 0.4 4.1 1.8 5.5 1.3 1.5 3.2 2.3 5.4 2.3h101.8c2.2 0 4.1-0.8 5.5-2.3 1.3-1.4 1.9-3.4 1.8-5.5z"/>
	<path id="Layer" class="s2" d="m168.2 78.5c0 3.8-3.1 6.8-6.9 6.8h-30.3c-3.8 0-6.9-3-6.9-6.8 0-3.8 3.1-6.8 6.9-6.8h30.3c3.8 0 6.9 3 6.9 6.8z"/>
	<path id="Layer" class="s2" d="m168.2 103.8c0 3.8-3.1 6.8-6.9 6.8h-30.3c-3.8 0-6.9-3-6.9-6.8 0-3.8 3.1-6.8 6.9-6.8h30.3c3.8 0 6.9 3 6.9 6.8z"/>
	<path id="Layer" class="s2" d="m168.2 129.1c0 3.8-3.1 6.9-6.9 6.9h-30.3c-3.8 0-6.9-3.1-6.9-6.9 0-3.8 3.1-6.8 6.9-6.8h30.3c3.8 0 6.9 3 6.9 6.8z"/>
	<path id="Layer" class="s2" d="m116.1 73.7c1.3 1.2 2.1 3 2.1 4.8 0 1.8-0.8 3.6-2.1 4.8-1.2 1.3-3 2-4.8 2-1.8 0-3.5-0.7-4.8-2-1.3-1.2-2-3-2-4.8 0-1.8 0.7-3.6 2-4.8 2.5-2.6 7.1-2.6 9.6 0z"/>
	<path id="Layer" class="s2" d="m116.1 99c1.3 1.2 2.1 3 2.1 4.8 0 1.8-0.8 3.5-2 4.9-1.3 1.2-3.1 2-4.9 2-1.8 0-3.5-0.8-4.8-2-1.3-1.3-2-3.1-2-4.9 0-1.8 0.7-3.6 2-4.8 2.5-2.6 7.1-2.6 9.6 0z"/>
	<path id="Layer" class="s2" d="m116.1 124.3c1.3 1.2 2.1 3 2.1 4.8 0 1.8-0.8 3.6-2.1 4.9-1.2 1.2-3 2-4.8 2-1.8 0-3.5-0.8-4.8-2-1.3-1.3-2-3.1-2-4.9 0-1.8 0.7-3.6 2-4.8 2.5-2.6 7.1-2.6 9.6 0z"/>
</svg>