<svg xmlns="http://www.w3.org/2000/svg" width="256" height="256" viewBox="0 0 100 100"><rect width="100" height="100" rx="50" fill="#982f5b"/><path fill="#fff" d="M48.28 58.44L48.28 58.44Q48.87 59.46 49.32 60.58Q49.77 61.71 50.19 62.86L50.19 62.86Q50.62 61.67 51.08 60.58Q51.55 59.50 52.15 58.39L52.15 58.39L72.76 20.95Q73.31 19.97 73.91 19.76Q74.50 19.55 75.61 19.55L75.61 19.55L81.68 19.55L81.68 80.45L74.46 80.45L74.46 35.70Q74.46 34.81 74.50 33.79Q74.54 32.77 74.63 31.70L74.63 31.70L53.76 69.78Q52.70 71.70 50.79 71.70L50.79 71.70L49.60 71.70Q47.68 71.70 46.62 69.78L46.62 69.78L25.29 31.58Q25.41 32.68 25.48 33.74Q25.54 34.81 25.54 35.70L25.54 35.70L25.54 80.45L18.32 80.45L18.32 19.55L24.39 19.55Q25.50 19.55 26.09 19.76Q26.69 19.97 27.24 20.95L27.24 20.95L48.28 58.44Z"/></svg>