<svg version="1.2" xmlns="http://www.w3.org/2000/svg" viewBox="0 0 785 247" width="785" height="247">
	<title>spotify-svg</title>
	<style>
		.s0 { fill: #191414 } 
	</style>
	<path id="Layer" fill-rule="evenodd" class="s0" d="m244.3 123.7c0 61.6-50 111.6-111.6 111.6-61.7 0-111.7-50-111.7-111.6 0-61.7 50-111.7 111.7-111.7 61.6 0 111.6 50 111.6 111.7zm-49.6 7c-34.5-21.2-84.9-27.2-125.5-14.9-1.1 0.4-2.1 0.9-3 1.6-0.8 0.8-1.6 1.7-2.1 2.7-0.6 1-0.9 2.1-1 3.2-0.1 1.2 0 2.3 0.3 3.4 1.4 4.6 6.3 7.2 10.9 5.8 35.5-10.8 81.2-5.4 111.3 13 4 2.5 9.4 1.2 11.9-2.9 2.5-4 1.3-9.4-2.8-11.9zm-9.9 39.8q0.2-1.4-0.1-2.7-0.3-1.4-1.1-2.5-0.9-1.1-2-1.8c-29.5-18-66-22.2-108.5-12.5q-1.3 0.3-2.5 1.1-1.1 0.8-1.8 2-0.8 1.2-1 2.6-0.2 1.3 0.1 2.7 0.3 1.3 1.1 2.4 0.8 1.2 2 1.9 1.1 0.7 2.5 1 1.4 0.2 2.7-0.1c38.9-8.9 71.9-5.3 98.1 10.8q1.2 0.7 2.5 0.9 1.4 0.2 2.8-0.1 1.3-0.3 2.4-1.2 1.1-0.8 1.9-2 0.7-1.1 0.9-2.5zm28.2-63.2c3-4.9 1.3-11.3-3.6-14.3-41.5-24.6-107-26.9-146.5-14.9-5.5 1.7-8.6 7.5-6.9 13 1.6 5.5 7.5 8.6 13 7 34.3-10.5 93.7-8.5 129.7 12.9 5 2.9 11.4 1.3 14.3-3.7zm144.8 38.4c0 19-14.4 31.2-36.9 31.2-15.8 0-30.5-5.6-42.5-16.3-0.5-0.4-0.5-1.2-0.1-1.7l10.6-12.6c0.2-0.3 0.5-0.4 0.8-0.4q0.1 0 0.3 0 0.1 0 0.2 0 0.1 0.1 0.2 0.1 0.2 0.1 0.3 0.2c10.2 8.9 19.4 12.6 30.7 12.6 10.1 0 16.4-4.3 16.4-11.4 0-6.4-3.1-9.9-21.6-14.2-21.7-5.2-34.2-12-34.2-31.2 0-17.8 14.5-30.3 35.4-30.3 14.1 0 26.2 4.2 37 12.8 0.5 0.4 0.6 1.2 0.2 1.7l-9.4 13.3q-0.1 0.1-0.2 0.2 0 0.1-0.2 0.1-0.1 0.1-0.2 0.1-0.1 0.1-0.2 0.1c-0.4 0.1-0.7 0-1-0.2-9-6.8-17.6-10-26.3-10-9 0-15 4.3-15 10.7 0 6.8 3.4 10 22.7 14.6 23.5 5.7 33 14.6 33 30.6zm87.2-9.1c0 26.5-18.3 40.5-36.4 40.5-9.7 0-17.7-3.6-24.3-11v30.9c0 0.7-0.5 1.3-1.2 1.3h-17.3c-0.7 0-1.3-0.6-1.3-1.3v-98.1c0-0.7 0.6-1.3 1.3-1.3h17.3c0.7 0 1.2 0.6 1.2 1.3v8.8c6.6-7.8 14.6-11.6 24.3-11.6 18.1 0 36.4 13.9 36.4 40.5zm-40.4-23c-11.8 0-20.7 9.9-20.7 23 0 13.1 8.9 23 20.7 23 11.9 0 20.3-9.5 20.3-23 0-13.4-8.6-23-20.3-23zm128.6 23c0 22.8-18.3 40.6-41.7 40.6-23.1 0-41.2-17.7-41.2-40.3 0-22.9 18.3-40.8 41.5-40.8 23.2 0 41.4 17.8 41.4 40.5zm-19.8 0.3c0-13.2-9.4-23.2-21.9-23.2-12.4 0-21.4 9.6-21.4 22.9 0 13.1 9.4 23.1 21.7 23.1 12.5 0 21.6-9.6 21.6-22.8zm70.7-38v14.8c0 0.7-0.5 1.3-1.2 1.3h-19v35.7c0 5.6 2.4 8.1 8 8.1 3.6 0 6.8-0.7 10.1-2.4q0.3-0.1 0.6-0.1 0.4 0 0.6 0.2 0.3 0.1 0.5 0.4 0.1 0.3 0.1 0.6v14.2c0 0.4-0.2 0.8-0.6 1.1-4.8 2.7-10 4-16.2 4-15.2 0-22.9-7.9-22.9-23.4v-38.4h-8.3c-0.7 0-1.3-0.6-1.3-1.3v-14.8c0-0.7 0.6-1.3 1.3-1.3h8.3v-19.4c0-0.7 0.5-1.2 1.2-1.2h17.3c0.7 0 1.3 0.5 1.3 1.2v19.4h19c0.7 0 1.2 0.6 1.2 1.3zm94.4-1.2q0.2 0 0.4 0.1 0.2 0 0.3 0.1 0.2 0.2 0.3 0.3 0.1 0.2 0.2 0.3l20.2 52.6 18.4-52.5q0-0.2 0.2-0.4 0.1-0.1 0.2-0.2 0.2-0.2 0.4-0.2 0.2-0.1 0.4-0.1h17.9q0.4 0 0.6 0.2 0.3 0.1 0.5 0.4 0.2 0.2 0.2 0.5 0 0.4-0.1 0.6l-29.9 77.4c-6.2 16-13.3 21.9-26 21.9-6.8 0-12.4-1.4-18.5-4.7q-0.2-0.1-0.3-0.3-0.2-0.2-0.3-0.4 0-0.2 0-0.5 0-0.2 0.1-0.4l5.8-12.8c0.2-0.4 0.5-0.6 0.8-0.7q0.1-0.1 0.2-0.1 0.2 0 0.3 0 0.1 0 0.3 0.1 0.1 0 0.2 0.1c3.3 1.8 6.5 2.7 9.5 2.7 3.8 0 6.5-1.3 9.3-7.5l-24.7-59.2h-16.1v59.2c0 0.7-0.5 1.3-1.2 1.3h-17.3c-0.7 0-1.3-0.6-1.3-1.3v-59.2h-8.3c-0.7 0-1.2-0.6-1.2-1.3v-14.9q0-0.2 0.1-0.5 0.1-0.2 0.3-0.4 0.1-0.1 0.4-0.2 0.2-0.1 0.4-0.1h8.3v-3.7c0-17 8.5-25.9 24.4-25.9 6.6 0 10.9 1 14.4 2q0.2 0.1 0.3 0.2 0.2 0.1 0.3 0.3 0.1 0.1 0.2 0.3 0.1 0.2 0 0.4v14.6q0.1 0.3-0.1 0.6-0.1 0.2-0.4 0.4-0.2 0.2-0.5 0.2-0.3 0.1-0.6 0c-3.2-1.1-6.1-1.8-9.7-1.8-6.1 0-8.8 3.1-8.8 10.1v2.4zm-66.6 1.2v75.3c0 0.7-0.5 1.3-1.2 1.3h-17.3c-0.7 0-1.2-0.6-1.2-1.3v-75.3c0-0.7 0.5-1.3 1.2-1.3h17.3c0.7 0 1.2 0.6 1.2 1.3zm2.6-23.2c0 6.9-5.5 12.4-12.4 12.4-6.8 0-12.4-5.5-12.4-12.4 0-6.8 5.6-12.3 12.4-12.3 6.9 0 12.4 5.5 12.4 12.3zm138.9 46.2c-6.9 0-12.2-5.5-12.2-12.2 0-6.7 5.4-12.2 12.2-12.2 6.9 0 12.2 5.5 12.2 12.1 0 6.7-5.4 12.3-12.2 12.3zm0-23.2c-6.2 0-10.9 5-10.9 11 0 6.1 4.7 10.9 10.9 10.9 6.2 0 10.9-4.9 10.9-11 0-6-4.7-10.9-10.9-10.9zm2.7 12.2l3.5 4.8h-2.9l-3.1-4.4h-2.7v4.4h-2.4v-12.7h5.7c2.9 0 4.9 1.5 4.9 4 0 2.1-1.2 3.4-3 3.9zm-2-5.8h-3.2v4.1h3.2c1.6 0 2.5-0.8 2.5-2 0-1.4-0.9-2.1-2.5-2.1z"/>
</svg>