<svg xmlns="http://www.w3.org/2000/svg" version="1.1" xmlns:xlink="http://www.w3.org/1999/xlink" xmlns:svgjs="http://svgjs.com/svgjs" width="1000" height="1000"><rect width="1000" height="1000" rx="300" ry="300" fill="#827b84"></rect><g transform="matrix(3.125,0,0,3.125,100,100)"><svg xmlns="http://www.w3.org/2000/svg" version="1.1" xmlns:xlink="http://www.w3.org/1999/xlink" xmlns:svgjs="http://svgjs.com/svgjs" width="256" height="256"><svg xmlns="http://www.w3.org/2000/svg" width="256" height="256" viewBox="0 0 100 100"><rect width="100" height="100" rx="20" fill="#e3dada"></rect><path d="M37.78 33.52L50.95 66.48L47.50 66.48Q46.91 66.48 46.54 66.18Q46.17 65.88 45.99 65.42L45.99 65.42L42.90 57.46L28.12 57.46L25.03 65.42Q24.87 65.84 24.48 66.16Q24.09 66.48 23.52 66.48L23.52 66.48L20.07 66.48L33.24 33.52L37.78 33.52ZM34.53 40.86L29.36 54.24L41.66 54.24L36.49 40.83Q35.98 39.59 35.50 37.73L35.50 37.73Q35.25 38.67 35.00 39.47Q34.76 40.26 34.53 40.86L34.53 40.86ZM63.40 52.73L60.02 52.73L60.02 66.48L55.58 66.48L55.58 33.52L64.89 33.52Q68.02 33.52 70.30 34.15Q72.57 34.79 74.06 35.98Q75.54 37.18 76.25 38.87Q76.97 40.56 76.97 42.65L76.97 42.65Q76.97 44.40 76.42 45.92Q75.86 47.44 74.82 48.64Q73.77 49.85 72.26 50.70Q70.76 51.55 68.85 51.99L68.85 51.99Q69.68 52.47 70.32 53.39L70.32 53.39L79.93 66.48L75.98 66.48Q74.76 66.48 74.18 65.54L74.18 65.54L65.63 53.76Q65.24 53.21 64.78 52.97Q64.32 52.73 63.40 52.73L63.40 52.73ZM60.02 37.04L60.02 49.48L64.69 49.48Q66.64 49.48 68.12 49.01Q69.61 48.54 70.61 47.68Q71.61 46.81 72.11 45.62Q72.62 44.42 72.62 42.97L72.62 42.97Q72.62 40.03 70.68 38.53Q68.73 37.04 64.89 37.04L64.89 37.04L60.02 37.04Z" fill="#724848"></path></svg></svg></g></svg>